<?xml version="1.0" encoding="UTF-8"?>
<svg xmlns="http://www.w3.org/2000/svg" xmlns:xlink="http://www.w3.org/1999/xlink" width="30pt" height="30.000001pt" viewBox="0 0 30 30.000001" version="1.2">
<defs>
<clipPath id="clip1">
  <path d="M 2.339844 1.824219 L 27.746094 1.824219 L 27.746094 27.230469 L 2.339844 27.230469 Z M 2.339844 1.824219 "/>
</clipPath>
</defs>
<g id="surface1">
<g clip-path="url(#clip1)" clip-rule="nonzero">
<path style=" stroke:none;fill-rule:nonzero;fill:rgb(100%,87.059021%,34.899902%);fill-opacity:1;" d="M 19.046875 14.527344 L 27.519531 6.078125 C 27.742188 5.855469 27.742188 5.496094 27.519531 5.273438 L 24.292969 2.054688 C 24.1875 1.949219 24.042969 1.886719 23.890625 1.886719 C 23.738281 1.886719 23.59375 1.949219 23.488281 2.054688 L 15.015625 10.503906 L 6.542969 2.054688 C 6.328125 1.839844 5.949219 1.839844 5.734375 2.054688 L 2.507812 5.273438 C 2.402344 5.378906 2.339844 5.523438 2.339844 5.675781 C 2.339844 5.828125 2.402344 5.972656 2.507812 6.078125 L 10.980469 14.527344 L 2.507812 22.976562 C 2.402344 23.085938 2.339844 23.226562 2.339844 23.378906 C 2.339844 23.53125 2.402344 23.675781 2.507812 23.78125 L 5.734375 27 C 5.847656 27.109375 5.992188 27.167969 6.140625 27.167969 C 6.285156 27.167969 6.429688 27.109375 6.542969 27 L 15.015625 18.550781 L 23.488281 27 C 23.710938 27.222656 24.070312 27.222656 24.292969 27 L 27.519531 23.78125 C 27.742188 23.558594 27.742188 23.199219 27.519531 22.976562 Z M 19.046875 14.527344 "/>
</g>
</g>
</svg>
