<?xml version="1.0" encoding="UTF-8"?>
<svg xmlns="http://www.w3.org/2000/svg" xmlns:xlink="http://www.w3.org/1999/xlink" width="45pt" height="30.000001pt" viewBox="0 0 45 30.000001" version="1.2">
<defs>
<clipPath id="clip1">
  <path d="M 2.417969 8 L 29 8 L 29 28.40625 L 2.417969 28.40625 Z M 2.417969 8 "/>
</clipPath>
<clipPath id="clip2">
  <path d="M 16 0.824219 L 42.339844 0.824219 L 42.339844 22 L 16 22 Z M 16 0.824219 "/>
</clipPath>
</defs>
<g id="surface1">
<g clip-path="url(#clip1)" clip-rule="nonzero">
<path style=" stroke:none;fill-rule:nonzero;fill:rgb(100%,87.059021%,34.899902%);fill-opacity:1;" d="M 23.964844 8.773438 L 23.964844 8.011719 L 7.0625 8.011719 C 5.792969 8.011719 4.636719 8.535156 3.804688 9.378906 C 2.972656 10.21875 2.457031 11.390625 2.457031 12.679688 L 2.457031 19.808594 C 2.457031 20.886719 2.824219 21.890625 3.433594 22.679688 C 4.042969 23.472656 4.898438 24.058594 5.886719 24.320312 L 6.078125 23.585938 L 5.429688 23.964844 L 7.472656 27.554688 C 7.628906 27.828125 7.855469 28.050781 8.109375 28.191406 C 8.363281 28.332031 8.644531 28.402344 8.921875 28.402344 C 9.199219 28.402344 9.480469 28.332031 9.734375 28.191406 C 9.988281 28.050781 10.210938 27.832031 10.367188 27.554688 L 12.121094 24.472656 L 23.964844 24.472656 C 25.234375 24.472656 26.390625 23.949219 27.21875 23.105469 C 28.054688 22.265625 28.570312 21.09375 28.570312 19.808594 L 28.570312 12.679688 C 28.570312 11.394531 28.050781 10.222656 27.21875 9.378906 C 26.390625 8.535156 25.234375 8.011719 23.964844 8.011719 L 23.964844 9.535156 C 24.824219 9.535156 25.59375 9.886719 26.15625 10.457031 C 26.71875 11.027344 27.066406 11.808594 27.066406 12.679688 L 27.066406 19.808594 C 27.066406 20.679688 26.71875 21.460938 26.15625 22.03125 C 25.59375 22.601562 24.824219 22.953125 23.964844 22.953125 L 11.253906 22.953125 L 9.066406 26.796875 C 9.042969 26.832031 9.027344 26.847656 9.003906 26.863281 C 8.980469 26.875 8.949219 26.882812 8.917969 26.882812 C 8.886719 26.882812 8.859375 26.875 8.835938 26.863281 C 8.8125 26.847656 8.792969 26.832031 8.773438 26.796875 L 6.570312 22.933594 L 6.265625 22.851562 C 5.605469 22.675781 5.023438 22.28125 4.613281 21.746094 C 4.203125 21.210938 3.957031 20.542969 3.957031 19.8125 L 3.957031 12.679688 C 3.957031 11.808594 4.300781 11.027344 4.863281 10.457031 C 5.429688 9.886719 6.199219 9.535156 7.058594 9.535156 L 23.960938 9.535156 L 23.960938 8.773438 "/>
</g>
<g clip-path="url(#clip2)" clip-rule="nonzero">
<path style=" stroke:none;fill-rule:nonzero;fill:rgb(100%,100%,100%);fill-opacity:1;" d="M 37.714844 0.824219 C 37.714844 0.824219 37.710938 0.824219 37.710938 0.824219 L 20.808594 0.824219 C 19.539062 0.824219 18.382812 1.347656 17.550781 2.191406 C 16.71875 3.03125 16.203125 4.203125 16.203125 5.492188 L 16.203125 8.011719 L 17.707031 8.011719 L 17.707031 5.492188 C 17.707031 4.621094 18.054688 3.839844 18.617188 3.265625 C 19.179688 2.699219 19.949219 2.347656 20.808594 2.347656 L 37.710938 2.347656 C 38.570312 2.347656 39.34375 2.699219 39.90625 3.265625 C 40.46875 3.839844 40.8125 4.621094 40.8125 5.492188 L 40.8125 12.621094 C 40.8125 13.351562 40.570312 14.019531 40.15625 14.554688 C 39.746094 15.089844 39.167969 15.484375 38.503906 15.660156 L 38.199219 15.742188 L 36 19.609375 C 35.976562 19.644531 35.960938 19.660156 35.9375 19.671875 C 35.914062 19.683594 35.882812 19.695312 35.851562 19.695312 C 35.820312 19.695312 35.789062 19.6875 35.769531 19.671875 C 35.746094 19.660156 35.726562 19.644531 35.707031 19.609375 L 33.515625 15.765625 L 28.570312 15.765625 L 28.570312 17.289062 L 32.648438 17.289062 L 34.402344 20.371094 C 34.558594 20.644531 34.785156 20.863281 35.039062 21.007812 C 35.292969 21.148438 35.570312 21.21875 35.847656 21.21875 C 36.128906 21.21875 36.40625 21.148438 36.660156 21.007812 C 36.914062 20.863281 37.140625 20.644531 37.296875 20.371094 L 39.191406 17.039062 C 40.050781 16.746094 40.792969 16.203125 41.335938 15.496094 C 41.949219 14.703125 42.3125 13.703125 42.3125 12.621094 L 42.3125 5.492188 C 42.3125 4.203125 41.796875 3.03125 40.964844 2.191406 C 40.136719 1.347656 38.980469 0.824219 37.714844 0.824219 "/>
</g>
<path style=" stroke:none;fill-rule:nonzero;fill:rgb(100%,87.059021%,34.899902%);fill-opacity:1;" d="M 28.570312 15.765625 L 27.820312 15.765625 C 27.402344 15.765625 27.066406 16.109375 27.066406 16.527344 C 27.066406 16.949219 27.402344 17.289062 27.820312 17.289062 L 28.570312 17.289062 L 28.570312 15.765625 M 17.707031 8.011719 L 16.203125 8.011719 L 16.203125 8.773438 C 16.203125 9.195312 16.539062 9.535156 16.953125 9.535156 C 17.371094 9.535156 17.707031 9.195312 17.707031 8.773438 L 17.707031 8.011719 "/>
</g>
</svg>
