<?xml version="1.0" encoding="UTF-8"?>
<svg xmlns="http://www.w3.org/2000/svg" xmlns:xlink="http://www.w3.org/1999/xlink" width="30pt" height="30.000001pt" viewBox="0 0 30 30.000001" version="1.2">
<defs>
<clipPath id="clip1">
  <path d="M 2.191406 11 L 27.59375 11 L 27.59375 17 L 2.191406 17 Z M 2.191406 11 "/>
</clipPath>
<clipPath id="clip2">
  <path d="M 2.191406 1.707031 L 27.59375 1.707031 L 27.59375 7 L 2.191406 7 Z M 2.191406 1.707031 "/>
</clipPath>
<clipPath id="clip3">
  <path d="M 2.191406 22 L 27.59375 22 L 27.59375 27.109375 L 2.191406 27.109375 Z M 2.191406 22 "/>
</clipPath>
</defs>
<g id="surface1">
<g clip-path="url(#clip1)" clip-rule="nonzero">
<path style=" stroke:none;fill-rule:nonzero;fill:rgb(100%,87.059021%,34.899902%);fill-opacity:1;" d="M 27.59375 14.40625 C 27.59375 15.808594 26.453125 16.949219 25.050781 16.949219 L 4.730469 16.949219 C 3.328125 16.949219 2.191406 15.808594 2.191406 14.40625 C 2.191406 13.003906 3.328125 11.867188 4.730469 11.867188 L 25.050781 11.867188 C 26.453125 11.867188 27.59375 13.003906 27.59375 14.40625 Z M 27.59375 14.40625 "/>
</g>
<g clip-path="url(#clip2)" clip-rule="nonzero">
<path style=" stroke:none;fill-rule:nonzero;fill:rgb(100%,87.059021%,34.899902%);fill-opacity:1;" d="M 27.59375 4.246094 C 27.59375 5.648438 26.453125 6.785156 25.050781 6.785156 L 4.730469 6.785156 C 3.328125 6.785156 2.191406 5.648438 2.191406 4.246094 C 2.191406 2.84375 3.328125 1.707031 4.730469 1.707031 L 25.050781 1.707031 C 26.453125 1.707031 27.59375 2.84375 27.59375 4.246094 Z M 27.59375 4.246094 "/>
</g>
<g clip-path="url(#clip3)" clip-rule="nonzero">
<path style=" stroke:none;fill-rule:nonzero;fill:rgb(100%,87.059021%,34.899902%);fill-opacity:1;" d="M 27.59375 24.570312 C 27.59375 25.972656 26.453125 27.109375 25.050781 27.109375 L 4.730469 27.109375 C 3.328125 27.109375 2.191406 25.972656 2.191406 24.570312 C 2.191406 23.167969 3.328125 22.027344 4.730469 22.027344 L 25.050781 22.027344 C 26.453125 22.027344 27.59375 23.167969 27.59375 24.570312 Z M 27.59375 24.570312 "/>
</g>
</g>
</svg>
