<?xml version="1.0" encoding="UTF-8"?>
<svg xmlns="http://www.w3.org/2000/svg" xmlns:xlink="http://www.w3.org/1999/xlink" width="30pt" height="30.000001pt" viewBox="0 0 30 30.000001" version="1.2">
<defs>
<clipPath id="clip1">
  <path d="M 1.535156 10.734375 L 19.257812 10.734375 L 19.257812 24.5625 L 1.535156 24.5625 Z M 1.535156 10.734375 "/>
</clipPath>
<clipPath id="clip2">
  <path d="M 10.703125 6.089844 L 28.449219 6.089844 L 28.449219 19.957031 L 10.703125 19.957031 Z M 10.703125 6.089844 "/>
</clipPath>
</defs>
<g id="surface1">
<g clip-path="url(#clip1)" clip-rule="nonzero">
<path style=" stroke:none;fill-rule:nonzero;fill:rgb(100%,87.059021%,34.899902%);fill-opacity:1;" d="M 16.0625 11.414062 L 16.0625 10.902344 L 4.667969 10.902344 C 3.8125 10.902344 3.03125 11.253906 2.46875 11.820312 C 1.910156 12.382812 1.5625 13.167969 1.5625 14.027344 L 1.5625 18.804688 C 1.5625 19.527344 1.808594 20.199219 2.21875 20.726562 C 2.632812 21.257812 3.210938 21.648438 3.875 21.824219 L 4.003906 21.332031 L 3.566406 21.585938 L 4.945312 23.992188 C 5.050781 24.175781 5.203125 24.320312 5.371094 24.417969 C 5.542969 24.511719 5.734375 24.558594 5.917969 24.558594 C 6.105469 24.558594 6.296875 24.511719 6.46875 24.417969 C 6.640625 24.320312 6.789062 24.175781 6.894531 23.992188 L 8.078125 21.925781 L 16.0625 21.925781 C 16.917969 21.925781 17.695312 21.578125 18.257812 21.011719 C 18.816406 20.449219 19.164062 19.664062 19.164062 18.800781 L 19.164062 14.027344 C 19.164062 13.167969 18.816406 12.382812 18.257812 11.820312 C 17.695312 11.253906 16.917969 10.902344 16.0625 10.902344 L 16.0625 11.921875 C 16.640625 11.921875 17.160156 12.15625 17.539062 12.539062 C 17.917969 12.921875 18.152344 13.445312 18.152344 14.027344 L 18.152344 18.804688 C 18.152344 19.386719 17.917969 19.910156 17.539062 20.292969 C 17.160156 20.675781 16.640625 20.90625 16.0625 20.90625 L 7.492188 20.90625 L 6.015625 23.484375 C 6.003906 23.507812 5.988281 23.519531 5.976562 23.527344 C 5.960938 23.535156 5.9375 23.542969 5.917969 23.542969 C 5.898438 23.542969 5.878906 23.535156 5.863281 23.527344 C 5.847656 23.519531 5.835938 23.507812 5.820312 23.484375 L 4.335938 20.894531 L 4.128906 20.839844 C 3.683594 20.722656 3.292969 20.457031 3.015625 20.101562 C 2.738281 19.742188 2.574219 19.292969 2.574219 18.804688 L 2.574219 14.027344 C 2.574219 13.445312 2.804688 12.921875 3.183594 12.542969 C 3.566406 12.160156 4.085938 11.925781 4.664062 11.925781 L 16.058594 11.925781 L 16.058594 11.414062 "/>
</g>
<g clip-path="url(#clip2)" clip-rule="nonzero">
<path style=" stroke:none;fill-rule:nonzero;fill:rgb(100%,100%,100%);fill-opacity:1;" d="M 25.332031 6.089844 L 13.933594 6.089844 C 13.078125 6.089844 12.296875 6.441406 11.738281 7.003906 C 11.175781 7.570312 10.828125 8.355469 10.828125 9.214844 L 10.828125 10.902344 L 11.84375 10.902344 L 11.84375 9.214844 C 11.84375 8.632812 12.074219 8.109375 12.457031 7.726562 C 12.835938 7.34375 13.355469 7.109375 13.933594 7.109375 L 25.332031 7.109375 C 25.910156 7.109375 26.429688 7.34375 26.808594 7.726562 C 27.1875 8.109375 27.421875 8.632812 27.421875 9.214844 L 27.421875 13.992188 C 27.421875 14.480469 27.253906 14.925781 26.976562 15.285156 C 26.699219 15.644531 26.308594 15.910156 25.863281 16.027344 L 25.65625 16.082031 L 24.171875 18.667969 C 24.160156 18.691406 24.148438 18.703125 24.132812 18.710938 C 24.117188 18.71875 24.097656 18.726562 24.074219 18.726562 C 24.054688 18.726562 24.03125 18.71875 24.019531 18.710938 C 24.003906 18.703125 23.992188 18.691406 23.976562 18.667969 L 22.503906 16.09375 L 19.164062 16.09375 L 19.164062 17.117188 L 21.914062 17.117188 L 23.097656 19.179688 C 23.203125 19.363281 23.355469 19.511719 23.527344 19.605469 C 23.695312 19.699219 23.886719 19.746094 24.074219 19.746094 C 24.261719 19.746094 24.449219 19.699219 24.621094 19.605469 C 24.792969 19.511719 24.945312 19.363281 25.046875 19.179688 L 26.328125 16.949219 C 26.90625 16.75 27.40625 16.386719 27.773438 15.914062 C 28.183594 15.386719 28.433594 14.714844 28.433594 13.992188 L 28.433594 9.214844 C 28.433594 8.355469 28.082031 7.570312 27.519531 7.003906 C 26.964844 6.441406 26.183594 6.089844 25.332031 6.089844 "/>
</g>
<path style=" stroke:none;fill-rule:nonzero;fill:rgb(100%,87.059021%,34.899902%);fill-opacity:1;" d="M 19.167969 16.097656 L 18.660156 16.097656 C 18.378906 16.097656 18.152344 16.324219 18.152344 16.609375 C 18.152344 16.890625 18.378906 17.117188 18.660156 17.117188 L 19.167969 17.117188 L 19.167969 16.097656 M 11.839844 10.902344 L 10.828125 10.902344 L 10.828125 11.414062 C 10.828125 11.695312 11.054688 11.925781 11.335938 11.925781 C 11.613281 11.925781 11.839844 11.695312 11.839844 11.414062 L 11.839844 10.902344 "/>
</g>
</svg>
